<svg width="114" height="30" viewBox="0 0 114 30" fill="none" xmlns="http://www.w3.org/2000/svg">
<path fill-rule="evenodd" clip-rule="evenodd" d="M44.2507 10.5334C45.6097 8.85105 47.2239 7.7127 49.3187 7.7127C51.5879 7.7127 53.867 9.19388 53.867 13.8776C53.867 19.0103 50.6339 24.4772 45.9306 24.4772C44.1189 24.4772 42.8952 23.6341 42.0716 22.5764C41.1517 23.7586 39.4474 24.2259 37.8382 24.2259L39.9598 6.7794C40.3929 3.1779 42.6719 0.75 45.4609 0.75L44.2531 10.5212L44.2507 10.5334ZM31.3769 7.73468C34.8185 7.73468 36.8036 9.90637 36.8036 11.9536C36.8036 14.002 36.1276 16.7788 27.2677 17.6279C27.2677 20.201 28.6732 20.8281 30.0592 20.8281C31.2166 20.8281 31.801 20.5347 32.2423 20.3131L32.276 20.2962C32.6786 20.0936 34.8076 19.1261 36.4583 21.2051C34.5465 23.0729 32.664 24.4663 29.0881 24.4663C25.5109 24.4663 21.9508 21.9395 22.6133 16.2212C23.2697 10.5652 27.5105 7.73468 31.3769 7.73468ZM27.6131 14.6194C32.0966 14.0191 32.3553 12.9271 32.4127 12.2964C32.4736 11.618 31.9759 11.0129 31.195 11.0129C30.3618 11.0129 28.5586 11.2618 27.6131 14.6194ZM17.4062 12.8417C17.4062 12.8417 15.5006 18.8175 15.3529 19.3189C15.3017 18.8175 13.9072 8.08365 13.9072 8.08365C10.6618 8.08365 8.92575 10.3895 8.01075 12.8393C8.01075 12.8393 5.69265 18.8321 5.50477 19.3336C5.49382 18.8638 5.14853 12.9016 5.14853 12.9016C4.9521 9.9051 2.2168 8.09093 0 8.09093L2.66578 24.3528C6.07088 24.3418 7.8936 22.0396 8.85503 19.5947C8.85503 19.5947 10.8937 14.307 10.9779 14.0667C10.9986 14.2961 12.4444 24.3528 12.4444 24.3528C15.8519 24.3528 17.6905 22.197 18.68 19.8399L23.4613 8.09093C20.094 8.09093 18.3212 10.3907 17.4062 12.8417ZM48.8868 16.0944C48.3988 18.9639 46.8042 20.8988 45.2596 20.8988C43.7029 20.8988 43.0453 20.2108 43.0453 20.2108C43.3356 17.7024 43.5284 16.1639 44.0957 14.839C44.6618 13.514 46.0002 11.3997 47.4007 11.3997C48.7623 11.3997 49.3748 13.2261 48.8868 16.0944ZM62.3645 8.0922H65.6574L65.5769 8.71192C65.3573 10.4042 64.1702 11.4167 63.16 11.4167H62.1278L60.6882 23.3389C60.2502 26.8795 58.2664 29.311 55.1833 29.4281L54.9565 29.4208L55.5152 26.6782L57.3587 11.4167H55.1627L55.2346 10.8494C55.4408 9.30735 56.6181 8.0934 57.6905 8.0934L57.7552 8.09093L57.7674 7.99335C58.2957 3.65978 60.3661 0.808575 66.9713 0.846375C66.9713 0.846375 66.6529 2.61907 66.559 3.12052C66.4394 3.75982 65.9246 4.35158 64.7863 4.46865C63.1197 4.6419 62.6048 5.77042 62.3803 7.92015L62.3645 8.0922ZM82.7453 7.80915C78.951 7.80915 75.375 10.6018 74.2755 14.9951C73.1775 19.3873 74.847 24.5736 80.4233 24.5736C86.0018 24.5736 89.2065 19.1676 89.2065 14.6792C89.2065 10.1882 86.1713 7.80915 82.7453 7.80915ZM80.808 20.966C83.2087 20.966 84.087 17.9561 84.2835 15.9638C84.5055 13.714 84.3225 11.4167 82.3815 11.4167C80.2327 11.4167 79.2233 13.9605 78.9727 15.7576C78.7395 17.434 78.3968 20.966 80.808 20.966ZM107.944 12.8417C107.944 12.8417 106.038 18.8175 105.892 19.3189C105.839 18.8175 104.445 8.08365 104.445 8.08365C101.2 8.08365 99.4642 10.3895 98.5485 12.8393C98.5485 12.8393 96.2318 18.8321 96.0435 19.3336C96.0322 18.8638 95.6872 12.9016 95.6872 12.9016C95.4907 9.9051 92.754 8.09093 90.5385 8.09093L93.2032 24.3528C96.6082 24.3418 98.4322 22.0396 99.3937 19.5947C99.3937 19.5947 101.432 14.307 101.516 14.0667C101.537 14.2961 102.982 24.3528 102.982 24.3528C106.39 24.3528 108.228 22.197 109.217 19.8399L114 8.09093C110.632 8.09093 108.859 10.3907 107.944 12.8417ZM65.9917 23.1437L68.7563 0.846375C70.8926 0.846375 73.2165 3.26572 72.732 7.1637L71.1353 19.9618C70.7376 23.256 68.6257 25.868 65.6488 25.9046L65.4231 25.8974L65.9843 23.1401L65.9917 23.1437Z" fill="black"/>
</svg>
