<svg width="140" height="56" viewBox="0 0 140 56" fill="none" xmlns="http://www.w3.org/2000/svg">
<g clip-path="url(#clip0_0_37)">
<mask id="mask0_0_37" style="mask-type:luminance" maskUnits="userSpaceOnUse" x="0" y="0" width="140" height="56">
<path d="M0 0V56H140V0H0Z" fill="white"/>
</mask>
<g mask="url(#mask0_0_37)">
<path fill-rule="evenodd" clip-rule="evenodd" d="M53.7736 37.0475H49.615V18.5791H56.2275C60.5927 18.5791 63.3565 20.3614 63.3565 24.1842V24.2875C63.3565 27.0771 61.7293 28.5495 59.5595 29.1952L64.4413 37.0475H59.9986L55.5817 29.9184H53.7736V37.0475ZM53.7736 21.782V27.0771H56.1241C58.2164 27.0771 59.2754 26.199 59.2754 24.4167V24.3133C59.2754 22.4278 58.1389 21.782 56.1241 21.782H53.7736Z" fill="black"/>
<path fill-rule="evenodd" clip-rule="evenodd" d="M78.0366 32.7855C77.5975 35.7044 75.2728 37.3316 71.5792 37.3316C67.498 37.3316 64.5276 34.7745 64.5276 30.4608V30.2542C64.5276 25.9923 67.5497 23.2285 71.4759 23.2285C74.9629 23.2285 78.0625 25.269 78.0625 30.0993V31.1325H68.3247C68.428 33.3797 69.642 34.6712 71.6825 34.6712C73.4131 34.6712 74.2655 33.9221 74.4979 32.7855H78.0366ZM71.4759 25.8115C69.7969 25.8115 68.6604 26.9222 68.3763 28.8336H74.4205C74.2914 26.793 73.2582 25.8115 71.4759 25.8115Z" fill="black"/>
<path d="M79.8425 37.0477H83.5621V17.417H79.8425V37.0477Z" fill="black"/>
<path d="M90.6982 37.3317C92.9198 37.3317 94.2883 36.2985 94.9857 34.9296V37.0476H98.7053V23.5386H94.9857V31.4683C94.9857 33.4573 93.7458 34.4388 92.1708 34.4388C90.5696 34.4388 89.8197 33.5606 89.8197 31.7266V23.5386H86.1006V32.2432C86.1006 35.7819 88.0636 37.3317 90.6982 37.3317Z" fill="black"/>
<path d="M101.244 37.0475H104.99V29.0661C104.99 27.2322 106.152 26.3022 107.599 26.3022C108.916 26.3022 109.717 27.0771 109.717 28.8078V37.0475H113.437V29.0661C113.437 27.2322 114.599 26.3022 116.045 26.3022C117.388 26.3022 118.163 27.0771 118.163 28.8078V37.0475H121.883V28.3945C121.883 24.8041 119.946 23.2285 117.44 23.2285C115.735 23.2285 113.979 23.9517 112.894 25.579C112.248 23.9776 110.905 23.2285 109.123 23.2285C107.108 23.2285 105.661 24.3392 104.99 25.6048V23.5384H101.244V37.0475Z" fill="black"/>
<path fill-rule="evenodd" clip-rule="evenodd" d="M136.989 32.7855C136.551 35.7044 134.226 37.3316 130.532 37.3316C126.451 37.3316 123.48 34.7745 123.48 30.4608V30.2542C123.48 25.9923 126.502 23.2285 130.428 23.2285C133.915 23.2285 137.015 25.269 137.015 30.0993V31.1325H127.277C127.381 33.3797 128.594 34.6712 130.635 34.6712C132.366 34.6712 133.218 33.9221 133.451 32.7855H136.989ZM130.428 25.8115C128.75 25.8115 127.613 26.9222 127.329 28.8336H133.374C133.244 26.793 132.211 25.8115 130.428 25.8115Z" fill="black"/>
<path fill-rule="evenodd" clip-rule="evenodd" d="M35.303 19.684L35.0519 19.2356C34.728 18.6932 34.2712 18.2425 33.7246 17.9261L21.6885 10.9843C21.1435 10.6682 20.5249 10.5011 19.8948 10.5H19.3746C18.7445 10.5011 18.1259 10.6682 17.5808 10.9843L5.54487 17.9441C5.00132 18.2584 4.5498 18.7099 4.23544 19.2535L3.98431 19.7019C3.66816 20.2469 3.50112 20.8656 3.5 21.4956V35.3972C3.50112 36.0273 3.66816 36.6459 3.98431 37.1909L4.23544 37.6394C4.55793 38.1766 5.00762 38.6263 5.54487 38.9488L17.5988 45.8905C18.1411 46.2132 18.7616 46.3808 19.3925 46.3748H19.8948C20.5249 46.3737 21.1435 46.2067 21.6885 45.8905L33.7246 38.9309C34.2735 38.6236 34.7267 38.1704 35.0339 37.6214L35.303 37.173C35.6154 36.6264 35.7822 36.0087 35.7873 35.3792V21.4777C35.7863 20.8477 35.6192 20.229 35.303 19.684ZM19.3746 14.0874H19.8948L30.4062 20.1503L19.6437 26.3566L8.88125 20.1503L19.3746 14.0874ZM21.4374 41.8906L31.9308 35.8277L32.1998 35.3793V23.2536L21.4374 29.4779V41.8906Z" fill="black"/>
</g>
</g>
<defs>
<clipPath id="clip0_0_37">
<rect width="140" height="56" fill="white"/>
</clipPath>
</defs>
</svg>
