<svg width="16" height="16" viewBox="0 0 16 16" fill="none" xmlns="http://www.w3.org/2000/svg">
<path fill-rule="evenodd" clip-rule="evenodd" d="M16 2.85714V4.57143H0V2.85714C0 1.91214 0.76928 1.14286 1.71429 1.14286H2.28571V0.571429C2.28571 0.255711 2.54142 0 2.85714 0C3.17286 0 3.42857 0.255711 3.42857 0.571429V1.14286H12.5714V0.571429C12.5714 0.255711 12.8271 0 13.1429 0C13.4586 0 13.7143 0.255711 13.7143 0.571429V1.14286H14.2857C15.2307 1.14286 16 1.91214 16 2.85714ZM16 14.2857V5.71429H0V14.2857C0 15.2307 0.76928 16 1.71429 16H14.2857C15.2307 16 16 15.2307 16 14.2857Z" fill="white"/>
</svg>
