<svg width="60" height="60" viewBox="0 0 60 60" fill="none" xmlns="http://www.w3.org/2000/svg">
<mask id="mask0_0_213" style="mask-type:luminance" maskUnits="userSpaceOnUse" x="0" y="0" width="60" height="60">
<path fill-rule="evenodd" clip-rule="evenodd" d="M0 0H60V60H0V0Z" fill="white"/>
</mask>
<g mask="url(#mask0_0_213)">
<path fill-rule="evenodd" clip-rule="evenodd" d="M45.5728 45.1589C45.4584 45.2734 45.2731 45.2734 45.1589 45.1589L30.7317 30.7317V60H60V30.7317L45.5728 45.1589ZM14.6342 30.7317V30.7317C6.552 30.7317 0 37.2837 0 45.3659V45.3659C0 53.448 6.552 60 14.6342 60V60C22.7163 60 29.2683 53.448 29.2683 45.3659V45.3659C29.2683 37.2837 22.7163 30.7317 14.6342 30.7317V30.7317ZM45.3659 0V0C37.2837 0 30.7317 6.552 30.7317 14.6342V14.6342C30.7317 22.7163 37.2837 29.2683 45.3659 29.2683V29.2683C53.448 29.2683 60 22.7163 60 14.6342V14.6342C60 6.552 53.448 0 45.3659 0V0ZM29.2683 19.7564C29.2683 25.0101 25.0098 29.2683 19.7561 29.2683H0V0.000292683H19.0244C24.9246 -0.0324878 28.3786 6.7443 25.0411 11.4822C24.9454 11.6181 24.9773 11.8024 25.1143 11.8961C27.6869 13.6589 29.2639 16.5471 29.2683 19.7564V19.7564Z" fill="#C5F060"/>
</g>
</svg>
