<svg width="205" height="70" viewBox="0 0 205 70" fill="none" xmlns="http://www.w3.org/2000/svg">
<rect width="205" height="70" fill="#3C06EC"/>
<path fill-rule="evenodd" clip-rule="evenodd" d="M149.712 34.7877C149.595 34.905 149.405 34.905 149.288 34.7877L134.5 19.9998V49.9998H164.5V19.9998L149.712 34.7877ZM118 19.9998C109.716 19.9998 103 26.7156 103 34.9998C103 43.284 109.716 49.9998 118 49.9998C126.284 49.9998 133 43.284 133 34.9998C133 26.7156 126.284 19.9998 118 19.9998ZM86.5 19.9998C78.2158 19.9998 71.5 26.7156 71.5 34.9998C71.5 43.284 78.2158 49.9998 86.5 49.9998C94.7842 49.9998 101.5 43.284 101.5 34.9998C101.5 26.7156 94.7842 19.9998 86.5 19.9998ZM70 40.2501C70 45.6351 65.635 49.9998 60.25 49.9998H40V20.0001H59.5C65.5477 19.9665 69.088 26.9127 65.6671 31.7691C65.569 31.9083 65.6017 32.0973 65.7421 32.1936C68.3791 34.0002 69.9955 36.9606 70 40.2501Z" fill="#FCF8F8"/>
</svg>
