<svg width="292" height="292" viewBox="0 0 292 292" fill="none" xmlns="http://www.w3.org/2000/svg">
<path fill-rule="evenodd" clip-rule="evenodd" d="M221.766 219.752C221.209 220.309 220.307 220.309 219.752 219.752L149.518 149.518V292H292V149.518L221.766 219.752ZM71.241 149.518V149.518C31.896 149.518 0 181.414 0 220.759V220.759C0 260.104 31.896 292 71.241 292V292C110.586 292 142.482 260.104 142.482 220.759V220.759C142.482 181.414 110.586 149.518 71.241 149.518V149.518ZM220.759 0V0C181.414 0 149.518 31.896 149.518 71.241V71.241C149.518 110.586 181.414 142.482 220.759 142.482V142.482C260.104 142.482 292 110.586 292 71.241V71.241C292 31.896 260.104 0 220.759 0V0ZM142.482 96.1765C142.482 121.752 121.751 142.482 96.1753 142.482H0V0.000576755H92.6133C121.336 -0.159004 138.151 32.8315 121.903 55.8966C121.437 56.5577 121.593 57.4553 122.259 57.9113C134.784 66.493 142.461 80.5532 142.482 96.1765V96.1765Z" fill="#FC546D"/>
</svg>
