<svg width="14" height="16" viewBox="0 0 14 16" fill="none" xmlns="http://www.w3.org/2000/svg">
<path fill-rule="evenodd" clip-rule="evenodd" d="M6.89014 15.856C6.92933 15.9016 6.96533 15.9496 6.99813 16L6.99827 15.9997C7.01844 15.9842 7.03296 15.9734 7.04387 15.9653C7.06108 15.9524 7.06932 15.9463 7.07666 15.9389C7.55472 15.4607 8.03518 14.9848 8.51564 14.5089C9.62062 13.4143 10.7256 12.3199 11.801 11.197C13.3145 9.68453 13.9665 7.51178 13.5345 5.41599C13.1345 3.25775 11.6915 1.43801 9.68048 0.556486C7.67036 -0.324236 5.35358 -0.15145 3.4962 1.01725C1.63866 2.18673 0.480357 4.20026 0.405164 6.39366C0.330759 8.2478 1.0483 10.0461 2.37859 11.3404C3.88221 12.845 5.38626 14.3505 6.89014 15.856ZM9.10905 4.54903C9.6586 5.10086 9.96738 5.84879 9.96578 6.62792L9.96571 6.62818C9.96411 7.41054 9.65053 8.15928 9.09618 8.70963C8.54108 9.26079 7.79076 9.56876 7.00842 9.56476C6.22934 9.56075 5.48379 9.24719 4.93584 8.69362C4.38709 8.14004 4.08071 7.39131 4.08391 6.61217C4.0879 5.83294 4.39987 5.08659 4.95263 4.53704C5.50616 3.98827 6.2541 3.6811 7.03323 3.6835C7.81236 3.6851 8.5595 3.99707 9.10905 4.54903Z" fill="white"/>
</svg>
